# xmcd CD database file
#
# Track frame offsets:
#	150
#	22015
#	37472
#	54202
#	76820
#	105630
#	132370
#	175510
#	200257
#	224587
#	255567
#	282002
#	314795
#
# Disc length: 4484 seconds
#
# Revision: 2
# Processed by: cddbd v1.5.1PL2 Copyright (c) Steve Scherf et al.
# Submitted via: CDex 1.51
#
DISCID=ba11820d
DTITLE=PANTA - NAKED II
DYEAR=1998
DGENRE=Rock
TTITLE0=暗闇の人生
TTITLE1=落ち葉のささやき
TTITLE2=まるでランボー〜Comme Rimbaud
TTITLE3=さようなら世界夫人よ
TTITLE4=裸にされた街
TTITLE5=蝗がとんだ
TTITLE6=バクテリア
TTITLE7=ステファンの６つ子
TTITLE8=午後の悪魔〜Demon de midi
TTITLE9=瓦斯
TTITLE10=夜と霧の中で
TTITLE11=万物流転
TTITLE12=パ・ドゥ・ドゥ Pas de deux
EXTD=YEAR: 1998
EXTT0=
EXTT1=
EXTT2=
EXTT3=
EXTT4=
EXTT5=
EXTT6=
EXTT7=
EXTT8=
EXTT9=
EXTT10=
EXTT11=
EXTT12=
PLAYORDER=
